<svg xmlns="http://www.w3.org/2000/svg" version="1.1" xmlns:xlink="http://www.w3.org/1999/xlink" xmlns:svgjs="http://svgjs.com/svgjs" viewBox="0 0 24 24" width="24" height="24"><title>Exported from Streamline App (https://app.streamlineicons.com)</title><g transform="matrix(1,0,0,1,0,0)"><path d="M 23.5,18.838c-2.505,0.521-4.06-1.979-4.06-1.979l0,0c-0.786,1.249-2.146,2.021-3.621,2.056 c-1.399-0.026-2.673-0.815-3.319-2.056l0,0c-0.417,0.532-0.925,0.986-1.5,1.341 " stroke="currentColor" fill="none" stroke-width="1" stroke-linecap="round" stroke-linejoin="round"></path><path d="M 0.5,21.95h23 " stroke="currentColor" fill="none" stroke-width="1" stroke-linecap="round" stroke-linejoin="round"></path><path d="M 2.956,21.95l5.544-16v16 " stroke="currentColor" fill="none" stroke-width="1" stroke-linecap="round" stroke-linejoin="round"></path><path d="M 7.64,5.606L1,2.949c3.6-2.4,7.5,0.5,7.5,3 " stroke="currentColor" fill="none" stroke-width="1" stroke-linecap="round" stroke-linejoin="round"></path><path d="M 9.365,5.6L16,2.949c-3.6-2.4-7.5,0.5-7.5,3 " stroke="currentColor" fill="none" stroke-width="1" stroke-linecap="round" stroke-linejoin="round"></path><path d="M 16.358,12.95 c0.73-5.612-4.927-8.5-7.858-7.057L16.358,12.95z " stroke="currentColor" fill="none" stroke-width="1" stroke-linecap="round" stroke-linejoin="round"></path><path d="M 0.642,12.95c-0.73-5.612,4.927-8.5,7.858-7.057L0.642,12.95z " stroke="currentColor" fill="none" stroke-width="1" stroke-linecap="round" stroke-linejoin="round"></path><path d="M 6.423,19.776H8.5 " stroke="currentColor" fill="none" stroke-width="1" stroke-linecap="round" stroke-linejoin="round"></path><path d="M 6.923,17.776H8.5" stroke="currentColor" fill="none" stroke-width="1" stroke-linecap="round" stroke-linejoin="round"></path></g></svg>