<svg xmlns="http://www.w3.org/2000/svg" version="1.1" xmlns:xlink="http://www.w3.org/1999/xlink" xmlns:svgjs="http://svgjs.com/svgjs" viewBox="0 0 48 48" width="48" height="48"><title>Exported from Streamline App (https://app.streamlineicons.com)</title><g transform="matrix(2,0,0,2,0,0)"><path d="M 2.224,2.223L3,3 " stroke="currentColor" fill="none" stroke-width="1" stroke-linecap="round" stroke-linejoin="round"></path><path d="M 12.776,2.223L12,3 " stroke="currentColor" fill="none" stroke-width="1" stroke-linecap="round" stroke-linejoin="round"></path><path d="M 4.174,9.723C2.942,7.89,3.429,5.404,5.262,4.172 c1.466-0.986,3.405-0.893,4.77,0.228 " stroke="currentColor" fill="none" stroke-width="1" stroke-linecap="round" stroke-linejoin="round"></path><path d="M 0.5,6.5h1 " stroke="currentColor" fill="none" stroke-width="1" stroke-linecap="round" stroke-linejoin="round"></path><path d="M 7.5,0.5v1 " stroke="currentColor" fill="none" stroke-width="1" stroke-linecap="round" stroke-linejoin="round"></path><path d="M 0.5,19.5h11 " stroke="currentColor" fill="none" stroke-width="1" stroke-linecap="round" stroke-linejoin="round"></path><path d="M 3.5,21.5h11 " stroke="currentColor" fill="none" stroke-width="1" stroke-linecap="round" stroke-linejoin="round"></path><path d="M 0.5,23.5h11 " stroke="currentColor" fill="none" stroke-width="1" stroke-linecap="round" stroke-linejoin="round"></path><path d="M 16.5,20.5h3 c2.209,0,4-1.791,4-4c0-1.323-0.654-2.561-1.748-3.306c0.658-1.52-0.041-3.287-1.561-3.945c-0.491-0.213-1.031-0.29-1.562-0.224 c-1.098-2.832-4.285-4.237-7.117-3.139c-1.951,0.757-3.303,2.555-3.489,4.639c-2.744,0.259-4.758,2.692-4.5,5.436 c0.05,0.531,0.185,1.051,0.4,1.54" stroke="currentColor" fill="none" stroke-width="1" stroke-linecap="round" stroke-linejoin="round"></path></g></svg>