<svg xmlns="http://www.w3.org/2000/svg" version="1.1" xmlns:xlink="http://www.w3.org/1999/xlink" xmlns:svgjs="http://svgjs.com/svgjs" viewBox="0 0 24 24" width="24" height="24"><title>Exported from Streamline App (https://app.streamlineicons.com)</title><g transform="matrix(1,0,0,1,0,0)"><path d="M 1.5,0.5h21c0.552,0,1,0.448,1,1v21c0,0.552-0.448,1-1,1h-21c-0.552,0-1-0.448-1-1v-21 C0.5,0.948,0.948,0.5,1.5,0.5z " stroke="currentColor" fill="none" stroke-width="1" stroke-linecap="round" stroke-linejoin="round"></path><path d="M 18.5,8.5v2.585C18.5,13.5,18,15.5,17,16.5L15.5,11L14,16.5c-1-1-1.5-3-1.5-5.415V8.5 " stroke="currentColor" fill="none" stroke-width="1" stroke-linecap="round" stroke-linejoin="round"></path><path d="M 9,10.5 c0,1.105-0.895,2-2,2H5.5v-4H7C8.105,8.5,9,9.395,9,10.5z " stroke="currentColor" fill="none" stroke-width="1" stroke-linecap="round" stroke-linejoin="round"></path><path d="M 9,14.5c0,1.105-0.895,2-2,2H5.5v-4H7C8.105,12.5,9,13.395,9,14.5z" stroke="currentColor" fill="none" stroke-width="1" stroke-linecap="round" stroke-linejoin="round"></path></g></svg>