<svg xmlns="http://www.w3.org/2000/svg" version="1.1" xmlns:xlink="http://www.w3.org/1999/xlink" xmlns:svgjs="http://svgjs.com/svgjs" viewBox="0 0 32 32" width="32" height="32"><title>Exported from Streamline App (https://app.streamlineicons.com)</title><g transform="matrix(1.3333333333333333,0,0,1.3333333333333333,0,0)"><path d="M4.023,10.428c0.028,0.181,0.153,0.332,0.326,0.394c1.639,0.589,2.904,1.917,3.412,3.583 c0.072,0.238,0.308,0.387,0.554,0.35c1.22-0.179,2.452-0.264,3.685-0.255c1.234-0.009,2.466,0.076,3.687,0.255 c0.246,0.038,0.482-0.11,0.555-0.348c0.503-1.665,1.767-2.993,3.406-3.577c0.176-0.062,0.302-0.216,0.329-0.4l0.453-2.94 c0.547-3.548-1.886-6.867-5.434-7.414C14.666,0.025,14.333,0,14,0H9.99C6.4,0.002,3.492,2.914,3.494,6.504 c0,0.33,0.026,0.66,0.076,0.986L4.023,10.428z M21.5,12c-2.217,0.008-4.008,1.812-4,4.03c0,0.006,0,0.012,0,0.018 c0,0.276-0.223,0.5-0.499,0.501c-0.045,0-0.089-0.006-0.133-0.018C15.276,16.142,13.639,15.964,12,16 c-1.639-0.036-3.276,0.142-4.868,0.531c-0.151,0.041-0.312,0.009-0.436-0.086C6.562,16.337,6.489,16.171,6.5,16 c0-2.209-1.791-4-4-4c-1.381-0.001-2.501,1.117-2.503,2.497c-0.001,1.011,0.607,1.924,1.542,2.312 C1.819,16.924,2.001,17.197,2,17.5v1c0.004,1.675,1.198,3.112,2.844,3.422c0.236,0.045,0.406,0.251,0.406,0.491v0.337 C5.25,23.44,5.81,24,6.5,24s1.25-0.56,1.25-1.25V22.5c0-0.276,0.224-0.5,0.5-0.5h7.5c0.276,0,0.5,0.224,0.5,0.5v0.25 c0,0.69,0.56,1.25,1.25,1.25s1.25-0.56,1.25-1.25v-0.338c0-0.24,0.17-0.446,0.406-0.491c1.646-0.31,2.84-1.746,2.844-3.421v-1 c-0.002-0.302,0.18-0.576,0.46-0.691c1.275-0.529,1.88-1.992,1.351-3.267C23.423,12.608,22.511,11.999,21.5,12z" stroke="none" fill="currentColor" stroke-width="0" stroke-linecap="round" stroke-linejoin="round"></path></g></svg>