<svg xmlns="http://www.w3.org/2000/svg" version="1.1" xmlns:xlink="http://www.w3.org/1999/xlink" xmlns:svgjs="http://svgjs.com/svgjs" viewBox="0 0 24 24" width="24" height="24"><title>Exported from Streamline App (https://app.streamlineicons.com)</title><g transform="matrix(1,0,0,1,0,0)"><path d="M 12,13.5v10 " stroke="currentColor" fill="none" stroke-width="1" stroke-linecap="round" stroke-linejoin="round"></path><path d="M 16,15.5h1.5c0.276,0,0.5,0.224,0.5,0.5v1.5c0,2.209-1.791,4-4,4h-2l0,0v-2 C12,17.291,13.791,15.5,16,15.5z " stroke="currentColor" fill="none" stroke-width="1" stroke-linecap="round" stroke-linejoin="round"></path><path d="M 5.5,2.767V7.5c0.143,3.449,3.05,6.132,6.5,6c3.45,0.132,6.357-2.551,6.5-6V2.094 " stroke="currentColor" fill="none" stroke-width="1" stroke-linecap="round" stroke-linejoin="round"></path><path d="M 17.819,0.5 c2.291,2.6-1.529,5.1-6.541,5.1C8.087,5.6,5.5,4.331,5.5,2.767C5.5,1.515,7.569,0.5,10.122,0.5c2.042,0,3.7,0.812,3.7,1.813 c0,0.8-1.324,1.451-2.958,1.451C10.082,3.82,9.308,3.575,8.7,3.081 " stroke="currentColor" fill="none" stroke-width="1" stroke-linecap="round" stroke-linejoin="round"></path><path d="M 11.5,5.6c0,0,2,0,2,2.5v5.242" stroke="currentColor" fill="none" stroke-width="1" stroke-linecap="round" stroke-linejoin="round"></path></g></svg>