<svg xmlns="http://www.w3.org/2000/svg" version="1.1" xmlns:xlink="http://www.w3.org/1999/xlink" xmlns:svgjs="http://svgjs.com/svgjs" viewBox="0 0 24 24" width="24" height="24"><title>Exported from Streamline App (https://app.streamlineicons.com)</title><g transform="matrix(1,0,0,1,0,0)"><path d="M 6.5,0.5h11c3.314,0,6,2.686,6,6v11c0,3.314-2.686,6-6,6h-11c-3.314,0-6-2.686-6-6v-11 C0.5,3.186,3.186,0.5,6.5,0.5z " stroke="currentColor" fill="none" stroke-width="1" stroke-linecap="round" stroke-linejoin="round"></path><path d="M 12,7.5c3.038,0,5.5,2.462,5.5,5.5s-2.462,5.5-5.5,5.5S6.5,16.038,6.5,13S8.962,7.5,12,7.5z " stroke="currentColor" fill="none" stroke-width="1" stroke-linecap="round" stroke-linejoin="round"></path><path d="M 12,9.5 c1.933,0,3.5,1.567,3.5,3.5s-1.567,3.5-3.5,3.5S8.5,14.933,8.5,13S10.067,9.5,12,9.5z " stroke="currentColor" fill="none" stroke-width="1" stroke-linecap="round" stroke-linejoin="round"></path><path d="M 0.5,10.5h6.6 " stroke="currentColor" fill="none" stroke-width="1" stroke-linecap="round" stroke-linejoin="round"></path><path d="M 16.9,10.5h6.6 " stroke="currentColor" fill="none" stroke-width="1" stroke-linecap="round" stroke-linejoin="round"></path><path d="M 18.5,3.5h1 c0.552,0,1,0.448,1,1v1c0,0.552-0.448,1-1,1h-1c-0.552,0-1-0.448-1-1v-1C17.5,3.948,17.948,3.5,18.5,3.5z " stroke="currentColor" fill="none" stroke-width="1" stroke-linecap="round" stroke-linejoin="round"></path><path d="M 4.5,0.842V5.5 " stroke="currentColor" fill="none" stroke-width="1" stroke-linecap="round" stroke-linejoin="round"></path><path d="M 6.5,0.5 v5 " stroke="currentColor" fill="none" stroke-width="1" stroke-linecap="round" stroke-linejoin="round"></path><path d="M 8.5,0.5v5 " stroke="currentColor" fill="none" stroke-width="1" stroke-linecap="round" stroke-linejoin="round"></path><path d="M 10.5,0.5v5" stroke="currentColor" fill="none" stroke-width="1" stroke-linecap="round" stroke-linejoin="round"></path></g></svg>