<svg xmlns="http://www.w3.org/2000/svg" version="1.1" xmlns:xlink="http://www.w3.org/1999/xlink" xmlns:svgjs="http://svgjs.com/svgjs" viewBox="0 0 24 24" width="24" height="24"><title>Exported from Streamline App (https://app.streamlineicons.com)</title><g transform="matrix(1,0,0,1,0,0)"><path d="M 23.5,19.38c0,1.933-1.567,3.5-3.5,3.5H4c-1.933,0-3.5-1.567-3.5-3.5s1.567-3.5,3.5-3.5h16 C21.933,15.88,23.5,17.447,23.5,19.38z " stroke="currentColor" fill="none" stroke-width="1" stroke-linecap="round" stroke-linejoin="round"></path><path d="M 7.847,15.88l2.944-5.167c1.626-2.85,1.796-6.304,0.458-9.3 c-0.113-0.252-0.408-0.365-0.661-0.252c-0.096,0.043-0.177,0.116-0.229,0.207L1.319,17.13 " stroke="currentColor" fill="none" stroke-width="1" stroke-linecap="round" stroke-linejoin="round"></path><path d="M 9.79,6.287l-2.744,4.814 " stroke="currentColor" fill="none" stroke-width="1" stroke-linecap="round" stroke-linejoin="round"></path><path d="M 5,17.88 c0.828,0,1.5,0.672,1.5,1.5s-0.672,1.5-1.5,1.5s-1.5-0.672-1.5-1.5S4.172,17.88,5,17.88z " stroke="currentColor" fill="none" stroke-width="1" stroke-linecap="round" stroke-linejoin="round"></path><path d="M 19,17.88c0.828,0,1.5,0.672,1.5,1.5 s-0.672,1.5-1.5,1.5s-1.5-0.672-1.5-1.5S18.172,17.88,19,17.88z " stroke="currentColor" fill="none" stroke-width="1" stroke-linecap="round" stroke-linejoin="round"></path><path d="M 22.5,16.93V6.88c0-1.105-0.895-2-2-2s-2,0.895-2,2 C19.641,7.113,20,8.119,20,9.329s-0.359,2.218-1.5,2.45v4.1" stroke="currentColor" fill="none" stroke-width="1" stroke-linecap="round" stroke-linejoin="round"></path></g></svg>