<svg xmlns="http://www.w3.org/2000/svg" version="1.1" xmlns:xlink="http://www.w3.org/1999/xlink" xmlns:svgjs="http://svgjs.com/svgjs" viewBox="0 0 24 24" width="24" height="24"><title>Exported from Streamline App (https://app.streamlineicons.com)</title><g transform="matrix(1,0,0,1,0,0)"><path d="M 23.5,12.5l-2.044-2.862c-0.161-0.225-0.473-0.276-0.698-0.116c-0.059,0.042-0.109,0.097-0.144,0.161 l-5.97,10.563c-0.089,0.157-0.255,0.254-0.436,0.254H9.792c-0.181,0-0.347-0.097-0.436-0.254L3.386,9.683 C3.25,9.443,2.945,9.358,2.705,9.494C2.641,9.529,2.586,9.579,2.544,9.638L0.5,12.5 " stroke="currentColor" fill="none" stroke-width="1" stroke-linecap="round" stroke-linejoin="round"></path><path d="M 1.5,20.5L7.614,9.683 c0.136-0.24,0.441-0.325,0.681-0.189c0.063,0.036,0.118,0.085,0.161,0.144L10.5,12.5 " stroke="currentColor" fill="none" stroke-width="1" stroke-linecap="round" stroke-linejoin="round"></path><path d="M 21.5,20.5L15.386,9.683 c-0.136-0.24-0.441-0.325-0.681-0.189c-0.063,0.036-0.118,0.085-0.161,0.144L12.5,12.5 " stroke="currentColor" fill="none" stroke-width="1" stroke-linecap="round" stroke-linejoin="round"></path><path d="M 5.5,3.5c1.105,0,2,0.895,2,2s-0.895,2-2,2 s-2-0.895-2-2S4.395,3.5,5.5,3.5z " stroke="currentColor" fill="none" stroke-width="1" stroke-linecap="round" stroke-linejoin="round"></path><path d="M 18,3.5c1.105,0,2,0.895,2,2s-0.895,2-2,2s-2-0.895-2-2S16.895,3.5,18,3.5z" stroke="currentColor" fill="none" stroke-width="1" stroke-linecap="round" stroke-linejoin="round"></path></g></svg>