<svg xmlns="http://www.w3.org/2000/svg" version="1.1" xmlns:xlink="http://www.w3.org/1999/xlink" xmlns:svgjs="http://svgjs.com/svgjs" viewBox="0 0 24 24" width="24" height="24"><title>Exported from Streamline App (https://app.streamlineicons.com)</title><g transform="matrix(1,0,0,1,0,0)"><path d="M 20.5,7l-2.43,14.582C18.03,21.823,17.821,22,17.576,22H6.424c-0.245,0-0.454-0.177-0.494-0.418L3.5,7 " stroke="currentColor" fill="none" stroke-width="1" stroke-linecap="round" stroke-linejoin="round"></path><path d="M 2.5,2 h19c0.552,0,1,0.448,1,1v3c0,0.552-0.448,1-1,1h-19c-0.552,0-1-0.448-1-1V3C1.5,2.448,1.948,2,2.5,2z " stroke="currentColor" fill="none" stroke-width="1" stroke-linecap="round" stroke-linejoin="round"></path><path d="M 4.833,15H19.18 " stroke="currentColor" fill="none" stroke-width="1" stroke-linecap="round" stroke-linejoin="round"></path><path d="M 5.333,18 h13.334" stroke="currentColor" fill="none" stroke-width="1" stroke-linecap="round" stroke-linejoin="round"></path></g></svg>