<svg xmlns="http://www.w3.org/2000/svg" version="1.1" xmlns:xlink="http://www.w3.org/1999/xlink" xmlns:svgjs="http://svgjs.com/svgjs" viewBox="0 0 24 24" width="24" height="24"><title>Exported from Streamline App (https://app.streamlineicons.com)</title><g transform="matrix(1,0,0,1,0,0)"><path d="M 23.5,19.5v3c0,0.552-0.448,1-1,1h-21c-0.552,0-1-0.448-1-1v-3 " stroke="currentColor" fill="none" stroke-width="1" stroke-linecap="round" stroke-linejoin="round"></path><path d="M 0.5,4.5v-3c0-0.552,0.448-1,1-1h21 c0.552,0,1,0.448,1,1v3 " stroke="currentColor" fill="none" stroke-width="1" stroke-linecap="round" stroke-linejoin="round"></path><path d="M 8.5,12.5v-5 " stroke="currentColor" fill="none" stroke-width="1" stroke-linecap="round" stroke-linejoin="round"></path><path d="M 11.5,19.5v-5 " stroke="currentColor" fill="none" stroke-width="1" stroke-linecap="round" stroke-linejoin="round"></path><path d="M 18.5,12.5v-5 " stroke="currentColor" fill="none" stroke-width="1" stroke-linecap="round" stroke-linejoin="round"></path><path d="M 17.5,7.5h2 " stroke="currentColor" fill="none" stroke-width="1" stroke-linecap="round" stroke-linejoin="round"></path><path d="M 4.5,12.5v-5 " stroke="currentColor" fill="none" stroke-width="1" stroke-linecap="round" stroke-linejoin="round"></path><path d="M 4.5,7.5h0.75 c0.69,0,1.25,0.56,1.25,1.25S5.94,10,5.25,10H4.5 " stroke="currentColor" fill="none" stroke-width="1" stroke-linecap="round" stroke-linejoin="round"></path><path d="M 6.5,12.5L5,10 " stroke="currentColor" fill="none" stroke-width="1" stroke-linecap="round" stroke-linejoin="round"></path><path d="M 7.5,19.5v-5 " stroke="currentColor" fill="none" stroke-width="1" stroke-linecap="round" stroke-linejoin="round"></path><path d="M 7.5,14.5h0.75c0.69,0,1.25,0.56,1.25,1.25 C9.5,16.44,8.94,17,8.25,17H7.5 " stroke="currentColor" fill="none" stroke-width="1" stroke-linecap="round" stroke-linejoin="round"></path><path d="M 9.5,19.5L8,17 " stroke="currentColor" fill="none" stroke-width="1" stroke-linecap="round" stroke-linejoin="round"></path><path d="M 1.5,12.5v-5 " stroke="currentColor" fill="none" stroke-width="1" stroke-linecap="round" stroke-linejoin="round"></path><path d="M 1.5,7.5H2c0.828,0,1.5,0.672,1.5,1.5S2.828,10.5,2,10.5H1.5 " stroke="currentColor" fill="none" stroke-width="1" stroke-linecap="round" stroke-linejoin="round"></path><path d="M 10.5,7.5v1.7c0.001,1.175,0.348,2.323,1,3.3c0.652-0.977,0.999-2.125,1-3.3V7.5 " stroke="currentColor" fill="none" stroke-width="1" stroke-linecap="round" stroke-linejoin="round"></path><path d="M 13.5,14.5v1.7c0.001,1.175,0.348,2.323,1,3.3 c0.652-0.977,0.999-2.125,1-3.3v-1.7 " stroke="currentColor" fill="none" stroke-width="1" stroke-linecap="round" stroke-linejoin="round"></path><path d="M 14.5,12.5v-4c0-0.552,0.448-1,1-1c0.552,0,1,0.448,1,1v4 " stroke="currentColor" fill="none" stroke-width="1" stroke-linecap="round" stroke-linejoin="round"></path><path d="M 14.5,10.5h2 " stroke="currentColor" fill="none" stroke-width="1" stroke-linecap="round" stroke-linejoin="round"></path><path d="M 3.5,19.5 c1.105,0,2-0.895,2-2v-1c0-1.105-0.895-2-2-2V19.5z " stroke="currentColor" fill="none" stroke-width="1" stroke-linecap="round" stroke-linejoin="round"></path><path d="M 22.5,12.5h-1c-0.552,0-1-0.448-1-1v-3c0-0.552,0.448-1,1-1h1 " stroke="currentColor" fill="none" stroke-width="1" stroke-linecap="round" stroke-linejoin="round"></path><path d="M 20.5,10.5h2 " stroke="currentColor" fill="none" stroke-width="1" stroke-linecap="round" stroke-linejoin="round"></path><path d="M 19.5,19.5h-1c-0.552,0-1-0.448-1-1v-3c0-0.552,0.448-1,1-1h1 " stroke="currentColor" fill="none" stroke-width="1" stroke-linecap="round" stroke-linejoin="round"></path><path d="M 17.5,17.5h2" stroke="currentColor" fill="none" stroke-width="1" stroke-linecap="round" stroke-linejoin="round"></path></g></svg>