<svg xmlns="http://www.w3.org/2000/svg" version="1.1" xmlns:xlink="http://www.w3.org/1999/xlink" xmlns:svgjs="http://svgjs.com/svgjs" viewBox="0 0 24 24" width="24" height="24"><title>Exported from Streamline App (https://app.streamlineicons.com)</title><g transform="matrix(1,0,0,1,0,0)"><path d="M 23.5,23.5V22c0-0.828-0.672-1.5-1.5-1.5H2c-0.828,0-1.5,0.672-1.5,1.5v1.5H23.5z " stroke="currentColor" fill="none" stroke-width="1" stroke-linecap="round" stroke-linejoin="round"></path><path d="M 1.999,5.5h6v15h-6V5.5z " stroke="currentColor" fill="none" stroke-width="1" stroke-linecap="round" stroke-linejoin="round"></path><path d="M 7.249,0.5c-0.414,0-0.75,0.336-0.75,0.75S6.163,2,5.749,2h-1.5c-0.414,0-0.75-0.336-0.75-0.75S3.163,0.5,2.749,0.5H1.5 c-0.552,0-1,0.448-1,1v3c0,0.552,0.448,1,1,1h7c0.552,0,1-0.448,1-1v-3c0-0.552-0.448-1-1-1H7.249z " stroke="currentColor" fill="none" stroke-width="1" stroke-linecap="round" stroke-linejoin="round"></path><path d="M 7.999,8.5h8 " stroke="currentColor" fill="none" stroke-width="1" stroke-linecap="round" stroke-linejoin="round"></path><path d="M 4.999,10 c0.552,0,1,0.448,1,1s-0.448,1-1,1s-1-0.448-1-1S4.447,10,4.999,10z " stroke="currentColor" fill="none" stroke-width="1" stroke-linecap="round" stroke-linejoin="round"></path><path d="M 15.999,5.5h6v15h-6V5.5z " stroke="currentColor" fill="none" stroke-width="1" stroke-linecap="round" stroke-linejoin="round"></path><path d="M 21.249,0.5 c-0.414,0-0.75,0.336-0.75,0.75S20.163,2,19.749,2h-1.5c-0.414,0-0.75-0.336-0.75-0.75s-0.336-0.75-0.75-0.75H15.5 c-0.552,0-1,0.448-1,1v3c0,0.552,0.448,1,1,1h7c0.552,0,1-0.448,1-1v-3c0-0.552-0.448-1-1-1H21.249z " stroke="currentColor" fill="none" stroke-width="1" stroke-linecap="round" stroke-linejoin="round"></path><path d="M 18.999,10 c0.552,0,1,0.448,1,1s-0.448,1-1,1s-1-0.448-1-1S18.447,10,18.999,10z " stroke="currentColor" fill="none" stroke-width="1" stroke-linecap="round" stroke-linejoin="round"></path><path d="M 10,20.5v-5c0-1.105,0.895-2,2-2s2,0.895,2,2v5" stroke="currentColor" fill="none" stroke-width="1" stroke-linecap="round" stroke-linejoin="round"></path></g></svg>