<svg xmlns="http://www.w3.org/2000/svg" version="1.1" xmlns:xlink="http://www.w3.org/1999/xlink" xmlns:svgjs="http://svgjs.com/svgjs" viewBox="0 0 24 24" width="24" height="24"><title>Exported from Streamline App (https://app.streamlineicons.com)</title><g transform="matrix(1,0,0,1,0,0)"><path d="M 3,7.5l2.768-6C6.32,0.543,7.544,0.216,8.5,0.768C8.804,0.944,9.056,1.196,9.232,1.5l1.777,2.86 c0.078-0.547,0.584-0.927,1.131-0.849c0.366,0.052,0.673,0.302,0.799,0.649L14.5,7.5H3z " stroke="currentColor" fill="none" stroke-width="1" stroke-linecap="round" stroke-linejoin="round"></path><path d="M 10,9.753c0,0,0,0.182,0.035,0.495 " stroke="currentColor" fill="none" stroke-width="1" stroke-linecap="round" stroke-linejoin="round"></path><path d="M 10.42,12.205c0.465,1.806,1.539,3.397,3.04,4.505c3.075,2.126,8.519,0.758,9.462,5.288 " stroke="currentColor" fill="none" stroke-width="1" stroke-linecap="round" stroke-linejoin="round"></path><path d="M 23.05,23 c0.009,0.16,0.013,0.327,0.013,0.5 " stroke="currentColor" fill="none" stroke-width="1" stroke-linecap="round" stroke-linejoin="round"></path><path d="M 4.5,20.5v2.013 " stroke="currentColor" fill="none" stroke-width="1" stroke-linecap="round" stroke-linejoin="round"></path><path d="M 7.922,19.437l-1.333-1.7c0.576,0.6,1.412-0.245,0.889-0.868L5.8,14.742 c0.613,0.61,1.425-0.283,0.833-0.923L4.5,11.513l-2.131,2.306c-0.593,0.64,0.22,1.533,0.833,0.923l-1.679,2.123 C1,17.488,1.836,18.335,2.412,17.733l-1.333,1.7c-0.244,0.244-0.244,0.64,0,0.884c0.117,0.117,0.274,0.182,0.439,0.183h5.965 c0.345-0.004,0.622-0.287,0.618-0.632C8.099,19.707,8.035,19.552,7.922,19.437z " stroke="currentColor" fill="none" stroke-width="1" stroke-linecap="round" stroke-linejoin="round"></path><path d="M 22.922,12.437l-1.333-1.7 c0.576,0.6,1.412-0.245,0.889-0.868L20.8,7.742c0.613,0.61,1.425-0.283,0.833-0.923L19.5,4.513l-2.131,2.306 c-0.593,0.64,0.22,1.533,0.833,0.923l-1.679,2.123c-0.523,0.623,0.313,1.47,0.889,0.868l-1.333,1.7 c-0.242,0.246-0.238,0.642,0.008,0.884c0.115,0.113,0.27,0.177,0.431,0.179h5.965c0.345-0.006,0.62-0.29,0.614-0.636 C23.095,12.702,23.032,12.551,22.922,12.437z " stroke="currentColor" fill="none" stroke-width="1" stroke-linecap="round" stroke-linejoin="round"></path><path d="M 19.5,13.5v2.013" stroke="currentColor" fill="none" stroke-width="1" stroke-linecap="round" stroke-linejoin="round"></path></g></svg>