<svg xmlns="http://www.w3.org/2000/svg" version="1.1" xmlns:xlink="http://www.w3.org/1999/xlink" xmlns:svgjs="http://svgjs.com/svgjs" viewBox="0 0 24 24" width="24" height="24"><title>Exported from Streamline App (https://app.streamlineicons.com)</title><g transform="matrix(1,0,0,1,0,0)"><path d="M 9,14.5v-5 " stroke="currentColor" fill="none" stroke-width="1" stroke-linecap="round" stroke-linejoin="round"></path><path d="M 16,14.5v-5 " stroke="currentColor" fill="none" stroke-width="1" stroke-linecap="round" stroke-linejoin="round"></path><path d="M 19,14.5v-5 " stroke="currentColor" fill="none" stroke-width="1" stroke-linecap="round" stroke-linejoin="round"></path><path d="M 18,9.5h2 " stroke="currentColor" fill="none" stroke-width="1" stroke-linecap="round" stroke-linejoin="round"></path><path d="M 7,7.5v-5 " stroke="currentColor" fill="none" stroke-width="1" stroke-linecap="round" stroke-linejoin="round"></path><path d="M 7,2.5h0.5C8.328,2.5,9,3.172,9,4S8.328,5.5,7.5,5.5 H7 " stroke="currentColor" fill="none" stroke-width="1" stroke-linecap="round" stroke-linejoin="round"></path><path d="M 5,9.5v4c0,0.552,0.448,1,1,1h1 " stroke="currentColor" fill="none" stroke-width="1" stroke-linecap="round" stroke-linejoin="round"></path><path d="M 5,2.5H4c-0.552,0-1,0.448-1,1C3,5,5,5,5,6.5c0,0.552-0.448,1-1,1H3 " stroke="currentColor" fill="none" stroke-width="1" stroke-linecap="round" stroke-linejoin="round"></path><path d="M 14,14.5v-5L12.5,12L11,9.5 v5 " stroke="currentColor" fill="none" stroke-width="1" stroke-linecap="round" stroke-linejoin="round"></path><path d="M 19,7.5c1.105,0,2-0.895,2-2v-1c0-1.105-0.895-2-2-2V7.5z " stroke="currentColor" fill="none" stroke-width="1" stroke-linecap="round" stroke-linejoin="round"></path><path d="M 13,7.5h-1c-0.552,0-1-0.448-1-1v-3c0-0.552,0.448-1,1-1h1 " stroke="currentColor" fill="none" stroke-width="1" stroke-linecap="round" stroke-linejoin="round"></path><path d="M 11,5.5h2 " stroke="currentColor" fill="none" stroke-width="1" stroke-linecap="round" stroke-linejoin="round"></path><path d="M 17,7.5h-1c-0.552,0-1-0.448-1-1v-3c0-0.552,0.448-1,1-1h1 " stroke="currentColor" fill="none" stroke-width="1" stroke-linecap="round" stroke-linejoin="round"></path><path d="M 15,5.5h2 " stroke="currentColor" fill="none" stroke-width="1" stroke-linecap="round" stroke-linejoin="round"></path><path d="M 2,0.5h20c0.552,0,1,0.448,1,1v21c0,0.552-0.448,1-1,1H2 c-0.552,0-1-0.448-1-1v-21C1,0.948,1.448,0.5,2,0.5z " stroke="currentColor" fill="none" stroke-width="1" stroke-linecap="round" stroke-linejoin="round"></path><path d="M 13,21.5h1.75c0.69,0,1.25-0.56,1.25-1.25c0-2.222-3-0.278-3-2.5V16.5h3 " stroke="currentColor" fill="none" stroke-width="1" stroke-linecap="round" stroke-linejoin="round"></path><path d="M 8.169,17.493C8.367,16.9,8.922,16.5,9.547,16.5l0,0c0.802-0.001,1.452,0.649,1.453,1.451c0,0.001,0,0.001,0,0.002l0,0 c0,0.35-0.139,0.686-0.387,0.934L8,21.5h3" stroke="currentColor" fill="none" stroke-width="1" stroke-linecap="round" stroke-linejoin="round"></path></g></svg>