<svg xmlns="http://www.w3.org/2000/svg" version="1.1" xmlns:xlink="http://www.w3.org/1999/xlink" xmlns:svgjs="http://svgjs.com/svgjs" viewBox="0 0 24 24" width="24" height="24"><title>Exported from Streamline App (https://app.streamlineicons.com)</title><g transform="matrix(1,0,0,1,0,0)"><path d="M 7.5,7c3.866,0,7,3.134,7,7s-3.134,7-7,7s-7-3.134-7-7S3.634,7,7.5,7z " stroke="currentColor" fill="none" stroke-width="1" stroke-linecap="round" stroke-linejoin="round"></path><path d="M 18.938,7.436 c3.625,1.343,5.475,5.371,4.132,8.996C22.052,19.18,19.43,21.003,16.5,21h-9 " stroke="currentColor" fill="none" stroke-width="1" stroke-linecap="round" stroke-linejoin="round"></path><path d="M 17.5,13h5.929 " stroke="currentColor" fill="none" stroke-width="1" stroke-linecap="round" stroke-linejoin="round"></path><path d="M 13.826,17H17.5 " stroke="currentColor" fill="none" stroke-width="1" stroke-linecap="round" stroke-linejoin="round"></path><path d="M 7.503,10 c2.209,0,4,1.791,4,4s-1.791,4-4,4s-4-1.791-4-4S5.294,10,7.503,10z " stroke="currentColor" fill="none" stroke-width="1" stroke-linecap="round" stroke-linejoin="round"></path><path d="M 7.5,13.75c0.138,0,0.25,0.112,0.25,0.25 " stroke="currentColor" fill="none" stroke-width="1" stroke-linecap="round" stroke-linejoin="round"></path><path d="M 7.253,14 c0-0.138,0.112-0.25,0.25-0.25 " stroke="currentColor" fill="none" stroke-width="1" stroke-linecap="round" stroke-linejoin="round"></path><path d="M 7.5,14.25c-0.138,0-0.25-0.112-0.25-0.25 " stroke="currentColor" fill="none" stroke-width="1" stroke-linecap="round" stroke-linejoin="round"></path><path d="M 7.753,14c0,0.138-0.112,0.25-0.25,0.25 " stroke="currentColor" fill="none" stroke-width="1" stroke-linecap="round" stroke-linejoin="round"></path><path d="M 18.5,3 C19.881,3,21,3.448,21,4s-1.119,1-2.5,1S16,4.552,16,4S17.119,3,18.5,3z " stroke="currentColor" fill="none" stroke-width="1" stroke-linecap="round" stroke-linejoin="round"></path><path d="M 7.5,7h5.531c0.297,0,0.579-0.132,0.769-0.36L16,4 " stroke="currentColor" fill="none" stroke-width="1" stroke-linecap="round" stroke-linejoin="round"></path><path d="M 20.728,4.454L18,9" stroke="currentColor" fill="none" stroke-width="1" stroke-linecap="round" stroke-linejoin="round"></path></g></svg>